<svg version="1.1" xmlns="http://www.w3.org/2000/svg" xmlns:xlink="http://www.w3.org/1999/xlink" viewBox="0 0 172 172"><g transform=""><g fill="none" fill-rule="nonzero" stroke="none" stroke-width="1" stroke-linecap="butt" stroke-linejoin="miter" stroke-miterlimit="10" stroke-dasharray="" stroke-dashoffset="0" font-family="none" font-weight="none" font-size="none" text-anchor="none" style="mix-blend-mode: normal"><path d="M0,172v-172h172v172z" fill="none"></path><g fill="#ffffff"><path d="M32.035,0c-10.22594,0 -18.275,8.04906 -18.275,18.275v126.205h106.64v-126.205c0,-10.22594 -8.04906,-18.275 -18.275,-18.275zM37.5175,17.2h59.125c3.44,0 6.5575,3.1175 6.5575,6.5575v35.045c0,3.44 -3.1175,6.5575 -6.5575,6.5575h-59.125c-3.44,0 -6.5575,-3.1175 -6.5575,-6.5575v-35.045c0,-3.44 3.1175,-6.5575 6.5575,-6.5575zM129.7525,18.1675l-4.945,4.945l19.6725,19.565v28.165c0,3.91031 1.62594,7.96844 4.4075,10.75l16.2325,16.125v26.1225c0,7.71313 -6.04687,13.76 -13.76,13.76c-7.71312,0 -13.76,-6.04687 -13.76,-13.76v-17.2c0,-9.1375 -5.67062,-16.67594 -13.76,-19.4575v7.525c4.12531,2.35156 6.88,6.74563 6.88,11.9325v17.2c0,11.56969 9.07031,20.64 20.64,20.64c11.56969,0 20.64,-9.07031 20.64,-20.64v-57.0825c0,-3.91031 -1.62594,-7.96844 -4.4075,-10.75zM10.32,151.36c-1.89469,0 -3.44,1.53188 -3.44,3.44v13.76c0,1.90813 1.54531,3.44 3.44,3.44h113.52c1.90813,0 3.44,-1.53187 3.44,-3.44v-13.76c0,-1.90812 -1.53187,-3.44 -3.44,-3.44z"></path></g><path d="" fill="none"></path></g></g></svg>