<svg version="1.1" xmlns="http://www.w3.org/2000/svg" xmlns:xlink="http://www.w3.org/1999/xlink" viewBox="0 0 172 172"><g transform=""><g fill="none" fill-rule="nonzero" stroke="none" stroke-width="1" stroke-linecap="butt" stroke-linejoin="miter" stroke-miterlimit="10" stroke-dasharray="" stroke-dashoffset="0" font-family="none" font-weight="none" font-size="none" text-anchor="none" style="mix-blend-mode: normal"><path d="M0,172v-172h172v172z" fill="none"></path><g fill="#ffffff"><path d="M32.035,0c-10.07812,0 -18.275,8.19688 -18.275,18.275v133.085h-3.44c-0.1075,0 -0.215,0 -0.3225,0c-1.77375,0.16125 -3.13094,1.65281 -3.1175,3.44v13.76c0,1.89469 1.54531,3.44 3.44,3.44h113.52c1.89469,0 3.44,-1.54531 3.44,-3.44v-13.76c0,-1.89469 -1.54531,-3.44 -3.44,-3.44h-3.44v-57.9425c6.03344,1.47813 10.32,6.61125 10.32,13.2225v17.2c0,11.43531 9.20469,20.64 20.64,20.64c11.43531,0 20.64,-9.20469 20.64,-20.64v-57.0825c0,-4.11187 -1.66625,-8.00875 -4.4075,-10.75l-37.84,-37.84l-4.945,4.945l19.6725,19.6725v28.0575c0,4.11188 1.66625,8.00875 4.4075,10.75l16.2325,16.2325v26.015c0,7.83406 -5.92594,13.76 -13.76,13.76c-7.83406,0 -13.76,-5.92594 -13.76,-13.76v-17.2c0,-10.26625 -7.40406,-18.69156 -17.2,-20.3175v-68.0475c0,-10.07812 -8.19687,-18.275 -18.275,-18.275zM32.035,6.88h70.09c6.43656,0 11.395,4.95844 11.395,11.395v133.085h-92.88v-133.085c0,-6.43656 4.95844,-11.395 11.395,-11.395zM37.5175,13.76c-5.50937,0 -9.9975,4.48813 -9.9975,9.9975v35.045c0,5.50938 4.48813,9.9975 9.9975,9.9975h59.125c5.50938,0 9.9975,-4.48812 9.9975,-9.9975v-35.045c0,-5.50937 -4.48812,-9.9975 -9.9975,-9.9975zM37.5175,20.64h59.125c1.37063,0 3.1175,1.74688 3.1175,3.1175v35.045c0,1.37063 -1.74687,3.1175 -3.1175,3.1175h-59.125c-1.37062,0 -3.1175,-1.74687 -3.1175,-3.1175v-35.045c0,-1.37062 1.74688,-3.1175 3.1175,-3.1175zM151.36,49.665l11.2875,11.2875c1.38406,1.38406 2.4725,3.72219 2.4725,5.805v21.1775l-11.2875,-11.2875c-1.38406,-1.38406 -2.4725,-3.72219 -2.4725,-5.805zM13.76,158.24h106.64v6.88h-106.64z"></path></g><path d="" fill="none"></path><path d="" fill="none"></path><path d="" fill="none"></path><path d="" fill="none"></path><path d="" fill="none"></path></g></g></svg>